# xmcd CD database file
# Generated: Son Aug 31 00:16:14 2003 by KSCD
# 
# Track frame offsets:
#       150
#       11038
#       24347
#       36114
#       51264
#       65796
#       82639
#       95179
#       108002
#       123128
#       134958
#       152768
#       173433
#       186272
#       204244
#       219079
#
# Disc length: 3280 seconds
#
# Revision: 1
# Processed by: cddbd v1.4PL0 Copyright (c) Steve Scherf et al.
# Submitted via: Kscd 1.3.3
#
DISCID=cf0cce10
DTITLE=It's M.E. - Absolutely live
DYEAR=1900
DGENRE=
TTITLE0=You can if you think you can
TTITLE1=I'm walking
TTITLE2=Can't buy me love
TTITLE3=Don't stop me now
TTITLE4=Honkytonk blues
TTITLE5=She's driving me mad
TTITLE6=i just wanna say I love you so
TTITLE7=Opposites attract
TTITLE8=Sunny afternoon
TTITLE9=Mean mean man
TTITLE10=I'll be there
TTITLE11=Kiss
TTITLE12=Bloodshot eyes
TTITLE13=Stand by me
TTITLE14=Venus
TTITLE15=Let it be
EXTD=
EXTT0=
EXTT1=
EXTT2=
EXTT3=
EXTT4=
EXTT5=
EXTT6=
EXTT7=
EXTT8=
EXTT9=
EXTT10=
EXTT11=
EXTT12=
EXTT13=
EXTT14=
EXTT15=
PLAYORDER=
